<mxfile host="app.diagrams.net" agent="Mozilla/5.0 (Windows NT 10.0; Win64; x64) AppleWebKit/537.36 (KHTML, like Gecko) Chrome/127.0.0.0 Safari/537.36" version="24.7.8">
  <diagram name="第 1 页" id="SR7Mx1iXq0hMhCt4xMcP">
    <mxGraphModel dx="1036" dy="457" grid="1" gridSize="10" guides="1" tooltips="1" connect="1" arrows="1" fold="1" page="1" pageScale="1" pageWidth="827" pageHeight="1169" math="0" shadow="0">
      <root>
        <mxCell id="0" />
        <mxCell id="1" parent="0" />
        <mxCell id="mIczdSF7pU9idGy3gyyG-1" value="" style="ellipse;whiteSpace=wrap;html=1;aspect=fixed;" vertex="1" parent="1">
          <mxGeometry x="141" y="358.66999999999996" width="20" height="20" as="geometry" />
        </mxCell>
        <mxCell id="mIczdSF7pU9idGy3gyyG-2" value="" style="endArrow=classic;html=1;rounded=0;exitX=1;exitY=0.5;exitDx=0;exitDy=0;" edge="1" parent="1" source="mIczdSF7pU9idGy3gyyG-1">
          <mxGeometry width="50" height="50" relative="1" as="geometry">
            <mxPoint x="391" y="353.66999999999996" as="sourcePoint" />
            <mxPoint x="291" y="368.66999999999996" as="targetPoint" />
          </mxGeometry>
        </mxCell>
        <mxCell id="mIczdSF7pU9idGy3gyyG-3" value="ProcessCreate" style="edgeLabel;html=1;align=center;verticalAlign=middle;resizable=0;points=[];" vertex="1" connectable="0" parent="mIczdSF7pU9idGy3gyyG-2">
          <mxGeometry x="-0.16" y="3" relative="1" as="geometry">
            <mxPoint x="9" y="-7" as="offset" />
          </mxGeometry>
        </mxCell>
        <mxCell id="mIczdSF7pU9idGy3gyyG-5" value="" style="endArrow=classic;html=1;rounded=0;entryX=0;entryY=0.5;entryDx=0;entryDy=0;" edge="1" parent="1" target="mIczdSF7pU9idGy3gyyG-9">
          <mxGeometry width="50" height="50" relative="1" as="geometry">
            <mxPoint x="1000" y="299" as="sourcePoint" />
            <mxPoint x="1048" y="449" as="targetPoint" />
            <Array as="points">
              <mxPoint x="1000" y="359" />
            </Array>
          </mxGeometry>
        </mxCell>
        <mxCell id="mIczdSF7pU9idGy3gyyG-6" value="ProcessCreate" style="edgeLabel;html=1;align=center;verticalAlign=middle;resizable=0;points=[];" vertex="1" connectable="0" parent="mIczdSF7pU9idGy3gyyG-5">
          <mxGeometry x="-0.16" y="3" relative="1" as="geometry">
            <mxPoint x="39" y="-6" as="offset" />
          </mxGeometry>
        </mxCell>
        <mxCell id="mIczdSF7pU9idGy3gyyG-7" value="explorer.exe" style="text;strokeColor=none;align=center;fillColor=none;html=1;verticalAlign=middle;whiteSpace=wrap;rounded=0;" vertex="1" parent="1">
          <mxGeometry x="121" y="373.66999999999996" width="60" height="30" as="geometry" />
        </mxCell>
        <mxCell id="mIczdSF7pU9idGy3gyyG-9" value="" style="ellipse;whiteSpace=wrap;html=1;aspect=fixed;fillColor=#f8cecc;strokeColor=#b85450;" vertex="1" parent="1">
          <mxGeometry x="1100" y="349" width="20" height="20" as="geometry" />
        </mxCell>
        <mxCell id="mIczdSF7pU9idGy3gyyG-10" value="window.exe" style="text;strokeColor=none;align=center;fillColor=none;html=1;verticalAlign=middle;whiteSpace=wrap;rounded=0;" vertex="1" parent="1">
          <mxGeometry x="1080" y="364" width="60" height="30" as="geometry" />
        </mxCell>
        <mxCell id="mIczdSF7pU9idGy3gyyG-11" value="" style="endArrow=classic;html=1;rounded=0;exitX=0.5;exitY=0;exitDx=0;exitDy=0;entryX=0.5;entryY=1;entryDx=0;entryDy=0;" edge="1" parent="1" source="mIczdSF7pU9idGy3gyyG-1" target="mIczdSF7pU9idGy3gyyG-13">
          <mxGeometry width="50" height="50" relative="1" as="geometry">
            <mxPoint x="150" y="274.17" as="sourcePoint" />
            <mxPoint x="150" y="190" as="targetPoint" />
          </mxGeometry>
        </mxCell>
        <mxCell id="mIczdSF7pU9idGy3gyyG-12" value="ProcessCreate" style="edgeLabel;html=1;align=center;verticalAlign=middle;resizable=0;points=[];" vertex="1" connectable="0" parent="mIczdSF7pU9idGy3gyyG-11">
          <mxGeometry x="-0.16" y="3" relative="1" as="geometry">
            <mxPoint x="3" y="-7" as="offset" />
          </mxGeometry>
        </mxCell>
        <mxCell id="mIczdSF7pU9idGy3gyyG-13" value="" style="ellipse;whiteSpace=wrap;html=1;aspect=fixed;" vertex="1" parent="1">
          <mxGeometry x="140" y="168" width="20" height="20" as="geometry" />
        </mxCell>
        <mxCell id="mIczdSF7pU9idGy3gyyG-14" value="CMClient.exe" style="text;strokeColor=none;align=center;fillColor=none;html=1;verticalAlign=middle;whiteSpace=wrap;rounded=0;" vertex="1" parent="1">
          <mxGeometry x="123" y="145" width="60" height="30" as="geometry" />
        </mxCell>
        <mxCell id="mIczdSF7pU9idGy3gyyG-15" value="" style="endArrow=classic;html=1;rounded=0;exitX=1;exitY=0.5;exitDx=0;exitDy=0;edgeStyle=elbowEdgeStyle;dashed=1;entryX=0;entryY=0.5;entryDx=0;entryDy=0;" edge="1" parent="1" target="mIczdSF7pU9idGy3gyyG-17">
          <mxGeometry width="50" height="50" relative="1" as="geometry">
            <mxPoint x="160" y="179.57999999999998" as="sourcePoint" />
            <mxPoint x="210" y="120" as="targetPoint" />
            <Array as="points">
              <mxPoint x="180" y="180" />
            </Array>
          </mxGeometry>
        </mxCell>
        <mxCell id="mIczdSF7pU9idGy3gyyG-16" value="FileCreate" style="edgeLabel;html=1;align=center;verticalAlign=middle;resizable=0;points=[];" vertex="1" connectable="0" parent="mIczdSF7pU9idGy3gyyG-15">
          <mxGeometry x="-0.16" y="3" relative="1" as="geometry">
            <mxPoint x="6" y="-7" as="offset" />
          </mxGeometry>
        </mxCell>
        <mxCell id="mIczdSF7pU9idGy3gyyG-17" value="" style="shape=document;whiteSpace=wrap;html=1;boundedLbl=1;" vertex="1" parent="1">
          <mxGeometry x="293" y="171" width="30" height="20" as="geometry" />
        </mxCell>
        <mxCell id="mIczdSF7pU9idGy3gyyG-18" value=".zip" style="text;strokeColor=none;align=center;fillColor=none;html=1;verticalAlign=middle;whiteSpace=wrap;rounded=0;" vertex="1" parent="1">
          <mxGeometry x="305" y="160" width="60" height="30" as="geometry" />
        </mxCell>
        <mxCell id="mIczdSF7pU9idGy3gyyG-19" value="" style="endArrow=classic;html=1;rounded=0;exitX=0.5;exitY=1;exitDx=0;exitDy=0;edgeStyle=elbowEdgeStyle;dashed=1;" edge="1" parent="1" source="mIczdSF7pU9idGy3gyyG-21">
          <mxGeometry width="50" height="50" relative="1" as="geometry">
            <mxPoint x="241.33999999999992" y="194.65999999999997" as="sourcePoint" />
            <mxPoint x="307" y="350" as="targetPoint" />
            <Array as="points">
              <mxPoint x="307" y="212" />
            </Array>
          </mxGeometry>
        </mxCell>
        <mxCell id="mIczdSF7pU9idGy3gyyG-20" value="FileCreate" style="edgeLabel;html=1;align=center;verticalAlign=middle;resizable=0;points=[];" vertex="1" connectable="0" parent="mIczdSF7pU9idGy3gyyG-19">
          <mxGeometry x="-0.16" y="3" relative="1" as="geometry">
            <mxPoint x="-3" y="20" as="offset" />
          </mxGeometry>
        </mxCell>
        <mxCell id="mIczdSF7pU9idGy3gyyG-21" value="" style="ellipse;whiteSpace=wrap;html=1;aspect=fixed;fillColor=#f8cecc;strokeColor=#b85450;" vertex="1" parent="1">
          <mxGeometry x="295" y="123" width="24" height="24" as="geometry" />
        </mxCell>
        <mxCell id="mIczdSF7pU9idGy3gyyG-22" value="winrar.exe" style="text;strokeColor=none;align=center;fillColor=none;html=1;verticalAlign=middle;whiteSpace=wrap;rounded=0;" vertex="1" parent="1">
          <mxGeometry x="271" y="98" width="60" height="30" as="geometry" />
        </mxCell>
        <mxCell id="mIczdSF7pU9idGy3gyyG-23" value="" style="endArrow=classic;html=1;rounded=0;entryX=0.339;entryY=-0.066;entryDx=0;entryDy=0;entryPerimeter=0;" edge="1" parent="1">
          <mxGeometry width="50" height="50" relative="1" as="geometry">
            <mxPoint x="1000" y="359" as="sourcePoint" />
            <mxPoint x="1100.3400000000001" y="465.69000000000005" as="targetPoint" />
            <Array as="points">
              <mxPoint x="1000" y="466" />
            </Array>
          </mxGeometry>
        </mxCell>
        <mxCell id="mIczdSF7pU9idGy3gyyG-24" value="ProcessCreate" style="edgeLabel;html=1;align=center;verticalAlign=middle;resizable=0;points=[];" vertex="1" connectable="0" parent="mIczdSF7pU9idGy3gyyG-23">
          <mxGeometry x="-0.16" y="3" relative="1" as="geometry">
            <mxPoint x="38" y="-5" as="offset" />
          </mxGeometry>
        </mxCell>
        <mxCell id="mIczdSF7pU9idGy3gyyG-25" value="" style="endArrow=classic;html=1;rounded=0;exitX=1;exitY=0.5;exitDx=0;exitDy=0;" edge="1" parent="1">
          <mxGeometry width="50" height="50" relative="1" as="geometry">
            <mxPoint x="910" y="294" as="sourcePoint" />
            <mxPoint x="1100" y="159" as="targetPoint" />
            <Array as="points">
              <mxPoint x="1000" y="294" />
              <mxPoint x="1000" y="159" />
            </Array>
          </mxGeometry>
        </mxCell>
        <mxCell id="mIczdSF7pU9idGy3gyyG-26" value="NetWorkConnect" style="edgeLabel;html=1;align=center;verticalAlign=middle;resizable=0;points=[];" vertex="1" connectable="0" parent="mIczdSF7pU9idGy3gyyG-25">
          <mxGeometry x="0.0831" y="3" relative="1" as="geometry">
            <mxPoint x="48" y="-59" as="offset" />
          </mxGeometry>
        </mxCell>
        <mxCell id="mIczdSF7pU9idGy3gyyG-27" value="" style="ellipse;shape=cloud;whiteSpace=wrap;html=1;" vertex="1" parent="1">
          <mxGeometry x="1097" y="145" width="43" height="22" as="geometry" />
        </mxCell>
        <mxCell id="mIczdSF7pU9idGy3gyyG-28" value="" style="endArrow=classic;html=1;rounded=0;" edge="1" parent="1">
          <mxGeometry width="50" height="50" relative="1" as="geometry">
            <mxPoint x="1000" y="199" as="sourcePoint" />
            <mxPoint x="1100" y="199" as="targetPoint" />
          </mxGeometry>
        </mxCell>
        <mxCell id="mIczdSF7pU9idGy3gyyG-29" value="ReflectiveInject" style="edgeLabel;html=1;align=center;verticalAlign=middle;resizable=0;points=[];" vertex="1" connectable="0" parent="mIczdSF7pU9idGy3gyyG-28">
          <mxGeometry x="0.152" y="-2" relative="1" as="geometry">
            <mxPoint x="-10" y="-10" as="offset" />
          </mxGeometry>
        </mxCell>
        <mxCell id="mIczdSF7pU9idGy3gyyG-30" value="" style="shape=document;whiteSpace=wrap;html=1;boundedLbl=1;" vertex="1" parent="1">
          <mxGeometry x="1101" y="190" width="30" height="20" as="geometry" />
        </mxCell>
        <mxCell id="mIczdSF7pU9idGy3gyyG-31" value=".jpg" style="text;strokeColor=none;align=center;fillColor=none;html=1;verticalAlign=middle;whiteSpace=wrap;rounded=0;" vertex="1" parent="1">
          <mxGeometry x="1087" y="200" width="60" height="30" as="geometry" />
        </mxCell>
        <mxCell id="mIczdSF7pU9idGy3gyyG-32" value="" style="endArrow=classic;html=1;rounded=0;" edge="1" parent="1">
          <mxGeometry width="50" height="50" relative="1" as="geometry">
            <mxPoint x="1000" y="237" as="sourcePoint" />
            <mxPoint x="1100" y="237" as="targetPoint" />
          </mxGeometry>
        </mxCell>
        <mxCell id="mIczdSF7pU9idGy3gyyG-33" value="ProcessCreate" style="edgeLabel;html=1;align=center;verticalAlign=middle;resizable=0;points=[];" vertex="1" connectable="0" parent="mIczdSF7pU9idGy3gyyG-32">
          <mxGeometry x="0.152" y="-2" relative="1" as="geometry">
            <mxPoint x="-10" y="-10" as="offset" />
          </mxGeometry>
        </mxCell>
        <mxCell id="mIczdSF7pU9idGy3gyyG-34" value="config.exe" style="text;strokeColor=none;align=center;fillColor=none;html=1;verticalAlign=middle;whiteSpace=wrap;rounded=0;" vertex="1" parent="1">
          <mxGeometry x="1084" y="237" width="60" height="30" as="geometry" />
        </mxCell>
        <mxCell id="mIczdSF7pU9idGy3gyyG-35" value="" style="ellipse;whiteSpace=wrap;html=1;aspect=fixed;fillColor=#f8cecc;strokeColor=#b85450;" vertex="1" parent="1">
          <mxGeometry x="1100" y="226" width="20" height="20" as="geometry" />
        </mxCell>
        <mxCell id="mIczdSF7pU9idGy3gyyG-36" value="" style="endArrow=classic;html=1;rounded=0;" edge="1" parent="1">
          <mxGeometry width="50" height="50" relative="1" as="geometry">
            <mxPoint x="1120" y="237" as="sourcePoint" />
            <mxPoint x="1220" y="237" as="targetPoint" />
          </mxGeometry>
        </mxCell>
        <mxCell id="mIczdSF7pU9idGy3gyyG-37" value="registryOperate" style="edgeLabel;html=1;align=center;verticalAlign=middle;resizable=0;points=[];" vertex="1" connectable="0" parent="mIczdSF7pU9idGy3gyyG-36">
          <mxGeometry x="0.152" y="-2" relative="1" as="geometry">
            <mxPoint x="-10" y="-10" as="offset" />
          </mxGeometry>
        </mxCell>
        <mxCell id="mIczdSF7pU9idGy3gyyG-38" value="RegClassification:1&lt;br&gt;开机启动项" style="text;strokeColor=none;align=center;fillColor=none;html=1;verticalAlign=middle;whiteSpace=wrap;rounded=0;" vertex="1" parent="1">
          <mxGeometry x="1252" y="216" width="76" height="30" as="geometry" />
        </mxCell>
        <mxCell id="mIczdSF7pU9idGy3gyyG-39" value="" style="shape=process;whiteSpace=wrap;html=1;backgroundOutline=1;" vertex="1" parent="1">
          <mxGeometry x="1220" y="232" width="20" height="10" as="geometry" />
        </mxCell>
        <mxCell id="mIczdSF7pU9idGy3gyyG-40" value="" style="endArrow=classic;html=1;rounded=0;exitX=0.611;exitY=0.035;exitDx=0;exitDy=0;exitPerimeter=0;dashed=1;" edge="1" parent="1" source="mIczdSF7pU9idGy3gyyG-34">
          <mxGeometry width="50" height="50" relative="1" as="geometry">
            <mxPoint x="1120" y="298" as="sourcePoint" />
            <mxPoint x="1220" y="298" as="targetPoint" />
          </mxGeometry>
        </mxCell>
        <mxCell id="mIczdSF7pU9idGy3gyyG-41" value="AutoStart" style="edgeLabel;html=1;align=center;verticalAlign=middle;resizable=0;points=[];" vertex="1" connectable="0" parent="mIczdSF7pU9idGy3gyyG-40">
          <mxGeometry x="0.152" y="-2" relative="1" as="geometry">
            <mxPoint x="1" y="-2" as="offset" />
          </mxGeometry>
        </mxCell>
        <mxCell id="mIczdSF7pU9idGy3gyyG-42" value="CCMini.exe" style="text;strokeColor=none;align=center;fillColor=none;html=1;verticalAlign=middle;whiteSpace=wrap;rounded=0;" vertex="1" parent="1">
          <mxGeometry x="1197" y="305" width="76" height="30" as="geometry" />
        </mxCell>
        <mxCell id="mIczdSF7pU9idGy3gyyG-43" value="" style="ellipse;whiteSpace=wrap;html=1;aspect=fixed;fillColor=#f8cecc;strokeColor=#b85450;" vertex="1" parent="1">
          <mxGeometry x="1220" y="285" width="20" height="20" as="geometry" />
        </mxCell>
        <mxCell id="mIczdSF7pU9idGy3gyyG-44" value="" style="endArrow=classic;html=1;rounded=0;" edge="1" parent="1">
          <mxGeometry width="50" height="50" relative="1" as="geometry">
            <mxPoint x="1240" y="295.43" as="sourcePoint" />
            <mxPoint x="1340" y="295.43" as="targetPoint" />
          </mxGeometry>
        </mxCell>
        <mxCell id="mIczdSF7pU9idGy3gyyG-45" value="ImageLoad" style="edgeLabel;html=1;align=center;verticalAlign=middle;resizable=0;points=[];" vertex="1" connectable="0" parent="mIczdSF7pU9idGy3gyyG-44">
          <mxGeometry x="0.152" y="-2" relative="1" as="geometry">
            <mxPoint x="-10" y="-10" as="offset" />
          </mxGeometry>
        </mxCell>
        <mxCell id="mIczdSF7pU9idGy3gyyG-46" value="AudioEngine.dll" style="text;strokeColor=none;align=center;fillColor=none;html=1;verticalAlign=middle;whiteSpace=wrap;rounded=0;" vertex="1" parent="1">
          <mxGeometry x="1318" y="304" width="76" height="30" as="geometry" />
        </mxCell>
        <mxCell id="mIczdSF7pU9idGy3gyyG-47" value="" style="ellipse;whiteSpace=wrap;html=1;aspect=fixed;" vertex="1" parent="1">
          <mxGeometry x="1341" y="284" width="20" height="20" as="geometry" />
        </mxCell>
        <mxCell id="mIczdSF7pU9idGy3gyyG-48" value="" style="ellipse;whiteSpace=wrap;html=1;aspect=fixed;fillColor=#f8cecc;strokeColor=#b85450;" vertex="1" parent="1">
          <mxGeometry x="1100" y="452.67" width="20" height="20" as="geometry" />
        </mxCell>
        <mxCell id="mIczdSF7pU9idGy3gyyG-49" value="window.exe" style="text;strokeColor=none;align=center;fillColor=none;html=1;verticalAlign=middle;whiteSpace=wrap;rounded=0;" vertex="1" parent="1">
          <mxGeometry x="1088.5" y="472.67" width="60" height="30" as="geometry" />
        </mxCell>
        <mxCell id="mIczdSF7pU9idGy3gyyG-50" value="" style="curved=1;endArrow=classic;html=1;rounded=0;exitX=0;exitY=0;exitDx=0;exitDy=0;entryX=1;entryY=0;entryDx=0;entryDy=0;dashed=1;" edge="1" parent="1" source="mIczdSF7pU9idGy3gyyG-48" target="mIczdSF7pU9idGy3gyyG-48">
          <mxGeometry width="50" height="50" relative="1" as="geometry">
            <mxPoint x="1070" y="412.67" as="sourcePoint" />
            <mxPoint x="1120" y="362.67" as="targetPoint" />
            <Array as="points">
              <mxPoint x="1090" y="422.67" />
              <mxPoint x="1103" y="402.67" />
              <mxPoint x="1130" y="422.67" />
            </Array>
          </mxGeometry>
        </mxCell>
        <mxCell id="mIczdSF7pU9idGy3gyyG-51" value="ReflectiveInject" style="text;whiteSpace=wrap;" vertex="1" parent="1">
          <mxGeometry x="1068" y="388.67" width="90" height="20" as="geometry" />
        </mxCell>
        <mxCell id="mIczdSF7pU9idGy3gyyG-52" value="" style="shape=document;whiteSpace=wrap;html=1;boundedLbl=1;fillColor=#f8cecc;strokeColor=#b85450;" vertex="1" parent="1">
          <mxGeometry x="294" y="357" width="30" height="20" as="geometry" />
        </mxCell>
        <mxCell id="mIczdSF7pU9idGy3gyyG-53" value=".pdf.lnk" style="text;strokeColor=none;align=center;fillColor=none;html=1;verticalAlign=middle;whiteSpace=wrap;rounded=0;" vertex="1" parent="1">
          <mxGeometry x="260" y="370.67" width="97" height="30" as="geometry" />
        </mxCell>
        <mxCell id="mIczdSF7pU9idGy3gyyG-74" value="" style="endArrow=classic;html=1;rounded=0;edgeStyle=elbowEdgeStyle;dashed=1;" edge="1" parent="1">
          <mxGeometry width="50" height="50" relative="1" as="geometry">
            <mxPoint x="310" y="180" as="sourcePoint" />
            <mxPoint x="450" y="260" as="targetPoint" />
            <Array as="points">
              <mxPoint x="450" y="180" />
            </Array>
          </mxGeometry>
        </mxCell>
        <mxCell id="mIczdSF7pU9idGy3gyyG-75" value="FileCreate" style="edgeLabel;html=1;align=center;verticalAlign=middle;resizable=0;points=[];" vertex="1" connectable="0" parent="mIczdSF7pU9idGy3gyyG-74">
          <mxGeometry x="-0.16" y="3" relative="1" as="geometry">
            <mxPoint x="43" y="20" as="offset" />
          </mxGeometry>
        </mxCell>
        <mxCell id="mIczdSF7pU9idGy3gyyG-76" value="" style="shape=document;whiteSpace=wrap;html=1;boundedLbl=1;" vertex="1" parent="1">
          <mxGeometry x="434" y="261.33" width="30" height="20" as="geometry" />
        </mxCell>
        <mxCell id="mIczdSF7pU9idGy3gyyG-77" value="GoogleCrashHandler.exe" style="text;strokeColor=none;align=center;fillColor=none;html=1;verticalAlign=middle;whiteSpace=wrap;rounded=0;" vertex="1" parent="1">
          <mxGeometry x="400" y="275" width="97" height="30" as="geometry" />
        </mxCell>
        <mxCell id="mIczdSF7pU9idGy3gyyG-82" value="" style="endArrow=classic;html=1;rounded=0;edgeStyle=elbowEdgeStyle;dashed=1;" edge="1" parent="1">
          <mxGeometry width="50" height="50" relative="1" as="geometry">
            <mxPoint x="450" y="180" as="sourcePoint" />
            <mxPoint x="580" y="261.33" as="targetPoint" />
            <Array as="points">
              <mxPoint x="580" y="181.33" />
            </Array>
          </mxGeometry>
        </mxCell>
        <mxCell id="mIczdSF7pU9idGy3gyyG-83" value="FileCreate" style="edgeLabel;html=1;align=center;verticalAlign=middle;resizable=0;points=[];" vertex="1" connectable="0" parent="mIczdSF7pU9idGy3gyyG-82">
          <mxGeometry x="-0.16" y="3" relative="1" as="geometry">
            <mxPoint x="-3" y="20" as="offset" />
          </mxGeometry>
        </mxCell>
        <mxCell id="mIczdSF7pU9idGy3gyyG-84" value="" style="shape=document;whiteSpace=wrap;html=1;boundedLbl=1;" vertex="1" parent="1">
          <mxGeometry x="563.5" y="261.33" width="30" height="20" as="geometry" />
        </mxCell>
        <mxCell id="mIczdSF7pU9idGy3gyyG-85" value="version.dll" style="text;strokeColor=none;align=center;fillColor=none;html=1;verticalAlign=middle;whiteSpace=wrap;rounded=0;" vertex="1" parent="1">
          <mxGeometry x="530" y="275" width="97" height="30" as="geometry" />
        </mxCell>
        <mxCell id="mIczdSF7pU9idGy3gyyG-88" value="" style="endArrow=classic;html=1;rounded=0;exitX=1;exitY=0.5;exitDx=0;exitDy=0;" edge="1" parent="1">
          <mxGeometry width="50" height="50" relative="1" as="geometry">
            <mxPoint x="325" y="366.66999999999996" as="sourcePoint" />
            <mxPoint x="440" y="366" as="targetPoint" />
          </mxGeometry>
        </mxCell>
        <mxCell id="mIczdSF7pU9idGy3gyyG-89" value="LnkProcessCreate" style="edgeLabel;html=1;align=center;verticalAlign=middle;resizable=0;points=[];" vertex="1" connectable="0" parent="mIczdSF7pU9idGy3gyyG-88">
          <mxGeometry x="-0.16" y="3" relative="1" as="geometry">
            <mxPoint x="9" y="-7" as="offset" />
          </mxGeometry>
        </mxCell>
        <mxCell id="mIczdSF7pU9idGy3gyyG-90" value="" style="ellipse;whiteSpace=wrap;html=1;aspect=fixed;fillColor=#f8cecc;strokeColor=#b85450;" vertex="1" parent="1">
          <mxGeometry x="440" y="355.16999999999996" width="20" height="20" as="geometry" />
        </mxCell>
        <mxCell id="mIczdSF7pU9idGy3gyyG-92" value="" style="endArrow=classic;html=1;rounded=0;entryX=0.5;entryY=0;entryDx=0;entryDy=0;dashed=1;" edge="1" parent="1" target="mIczdSF7pU9idGy3gyyG-90">
          <mxGeometry width="50" height="50" relative="1" as="geometry">
            <mxPoint x="450" y="280" as="sourcePoint" />
            <mxPoint x="590" y="319.4999999999999" as="targetPoint" />
          </mxGeometry>
        </mxCell>
        <mxCell id="mIczdSF7pU9idGy3gyyG-101" value="" style="endArrow=classic;html=1;rounded=0;exitX=1;exitY=0.5;exitDx=0;exitDy=0;entryX=0;entryY=0.5;entryDx=0;entryDy=0;" edge="1" parent="1" target="mIczdSF7pU9idGy3gyyG-103">
          <mxGeometry width="50" height="50" relative="1" as="geometry">
            <mxPoint x="460" y="366.49999999999994" as="sourcePoint" />
            <mxPoint x="575" y="365.83" as="targetPoint" />
            <Array as="points">
              <mxPoint x="460" y="315" />
            </Array>
          </mxGeometry>
        </mxCell>
        <mxCell id="mIczdSF7pU9idGy3gyyG-102" value="ImageLoad" style="edgeLabel;html=1;align=center;verticalAlign=middle;resizable=0;points=[];" vertex="1" connectable="0" parent="mIczdSF7pU9idGy3gyyG-101">
          <mxGeometry x="-0.16" y="3" relative="1" as="geometry">
            <mxPoint x="9" y="-7" as="offset" />
          </mxGeometry>
        </mxCell>
        <mxCell id="mIczdSF7pU9idGy3gyyG-103" value="" style="ellipse;whiteSpace=wrap;html=1;aspect=fixed;" vertex="1" parent="1">
          <mxGeometry x="568.5" y="305.3299999999999" width="20" height="20" as="geometry" />
        </mxCell>
        <mxCell id="mIczdSF7pU9idGy3gyyG-104" value="version.dll" style="text;strokeColor=none;align=center;fillColor=none;html=1;verticalAlign=middle;whiteSpace=wrap;rounded=0;" vertex="1" parent="1">
          <mxGeometry x="548.5" y="318.9999999999999" width="60" height="30" as="geometry" />
        </mxCell>
        <mxCell id="mIczdSF7pU9idGy3gyyG-105" value="" style="endArrow=classic;html=1;rounded=0;entryX=0.5;entryY=0;entryDx=0;entryDy=0;dashed=1;exitX=0.5;exitY=0;exitDx=0;exitDy=0;" edge="1" parent="1" target="mIczdSF7pU9idGy3gyyG-103" source="mIczdSF7pU9idGy3gyyG-85">
          <mxGeometry width="50" height="50" relative="1" as="geometry">
            <mxPoint x="585" y="279.83" as="sourcePoint" />
            <mxPoint x="725" y="319.32999999999987" as="targetPoint" />
          </mxGeometry>
        </mxCell>
        <mxCell id="mIczdSF7pU9idGy3gyyG-107" value="" style="endArrow=classic;html=1;rounded=0;entryX=0;entryY=0.5;entryDx=0;entryDy=0;" edge="1" parent="1" target="mIczdSF7pU9idGy3gyyG-110">
          <mxGeometry width="50" height="50" relative="1" as="geometry">
            <mxPoint x="460" y="366.17" as="sourcePoint" />
            <mxPoint x="560" y="366.17" as="targetPoint" />
          </mxGeometry>
        </mxCell>
        <mxCell id="mIczdSF7pU9idGy3gyyG-108" value="ProcessCreate" style="edgeLabel;html=1;align=center;verticalAlign=middle;resizable=0;points=[];" vertex="1" connectable="0" parent="mIczdSF7pU9idGy3gyyG-107">
          <mxGeometry x="0.152" y="-2" relative="1" as="geometry">
            <mxPoint x="-10" y="-10" as="offset" />
          </mxGeometry>
        </mxCell>
        <mxCell id="mIczdSF7pU9idGy3gyyG-109" value="cmd.exe" style="text;strokeColor=none;align=center;fillColor=none;html=1;verticalAlign=middle;whiteSpace=wrap;rounded=0;" vertex="1" parent="1">
          <mxGeometry x="549" y="368.17" width="60" height="30" as="geometry" />
        </mxCell>
        <mxCell id="mIczdSF7pU9idGy3gyyG-110" value="" style="ellipse;whiteSpace=wrap;html=1;aspect=fixed;fillColor=#f8cecc;strokeColor=#b85450;" vertex="1" parent="1">
          <mxGeometry x="568" y="355.17" width="20" height="20" as="geometry" />
        </mxCell>
        <mxCell id="mIczdSF7pU9idGy3gyyG-111" value="" style="endArrow=classic;html=1;rounded=0;entryX=0;entryY=0.5;entryDx=0;entryDy=0;" edge="1" parent="1" target="mIczdSF7pU9idGy3gyyG-114">
          <mxGeometry width="50" height="50" relative="1" as="geometry">
            <mxPoint x="588.5" y="366.17" as="sourcePoint" />
            <mxPoint x="688.5" y="366.17" as="targetPoint" />
          </mxGeometry>
        </mxCell>
        <mxCell id="mIczdSF7pU9idGy3gyyG-112" value="ProcessCreate" style="edgeLabel;html=1;align=center;verticalAlign=middle;resizable=0;points=[];" vertex="1" connectable="0" parent="mIczdSF7pU9idGy3gyyG-111">
          <mxGeometry x="0.152" y="-2" relative="1" as="geometry">
            <mxPoint x="-10" y="-10" as="offset" />
          </mxGeometry>
        </mxCell>
        <mxCell id="mIczdSF7pU9idGy3gyyG-113" value="whoami.exe" style="text;strokeColor=none;align=center;fillColor=none;html=1;verticalAlign=middle;whiteSpace=wrap;rounded=0;" vertex="1" parent="1">
          <mxGeometry x="677.5" y="368.17" width="60" height="30" as="geometry" />
        </mxCell>
        <mxCell id="mIczdSF7pU9idGy3gyyG-114" value="" style="ellipse;whiteSpace=wrap;html=1;aspect=fixed;" vertex="1" parent="1">
          <mxGeometry x="696.5" y="355.17" width="20" height="20" as="geometry" />
        </mxCell>
        <mxCell id="mIczdSF7pU9idGy3gyyG-115" value="" style="curved=1;endArrow=classic;html=1;rounded=0;exitX=0;exitY=1;exitDx=0;exitDy=0;entryX=1;entryY=1;entryDx=0;entryDy=0;dashed=1;" edge="1" parent="1" source="mIczdSF7pU9idGy3gyyG-90" target="mIczdSF7pU9idGy3gyyG-90">
          <mxGeometry width="50" height="50" relative="1" as="geometry">
            <mxPoint x="447" y="452.67" as="sourcePoint" />
            <mxPoint x="497" y="402.67" as="targetPoint" />
            <Array as="points">
              <mxPoint x="430" y="420" />
              <mxPoint x="440" y="440" />
              <mxPoint x="490" y="440" />
            </Array>
          </mxGeometry>
        </mxCell>
        <mxCell id="mIczdSF7pU9idGy3gyyG-118" value="ReflectiveInject" style="text;whiteSpace=wrap;" vertex="1" parent="1">
          <mxGeometry x="407" y="440" width="90" height="20" as="geometry" />
        </mxCell>
        <mxCell id="mIczdSF7pU9idGy3gyyG-91" value="GoogleCrashHandler64.exe" style="text;strokeColor=none;align=center;fillColor=none;html=1;verticalAlign=middle;whiteSpace=wrap;rounded=0;" vertex="1" parent="1">
          <mxGeometry x="418.5" y="376.9999999999999" width="60" height="30" as="geometry" />
        </mxCell>
      </root>
    </mxGraphModel>
  </diagram>
</mxfile>
